<?xml version="1.0" encoding="UTF-8"?>
<!-- Created with Inkscape (http://www.inkscape.org/) -->
<svg width="250" height="200" version="1.1" viewBox="0 0 250 200" xmlns="http://www.w3.org/2000/svg" xmlns:cc="http://creativecommons.org/ns#" xmlns:dc="http://purl.org/dc/elements/1.1/" xmlns:rdf="http://www.w3.org/1999/02/22-rdf-syntax-ns#">
 <metadata>
  <rdf:RDF>
   <cc:Work rdf:about="">
    <dc:format>image/svg+xml</dc:format>
    <dc:type rdf:resource="http://purl.org/dc/dcmitype/StillImage"/>
    <dc:title/>
   </cc:Work>
  </rdf:RDF>
 </metadata>
 <g>
  <path d="m50 175h150l-18.75-37.5h50l-25-50h-50l-31.25-62.5-31.25 62.5h-50l-25 50h50z" fill="#fff" stroke="#000" stroke-width="2"/>
  <g fill="none" stroke="#000" stroke-width="1px">
   <path d="m31.25 112.5h187.5"/>
   <path d="m18.75 137.5h212.5"/>
   <path d="m43.75 87.5h162.5"/>
   <path d="m50 175h150"/>
   <path d="m125 25-25 150"/>
   <path d="m125 25-75 150"/>
   <path d="m200 175-75-150"/>
  </g>
  <g>
   <circle cx="125" cy="25" r="3"/>
   <circle cx="93.75" cy="87.5" r="3"/>
   <circle cx="114.58" cy="87.5" r="3"/>
   <circle cx="68.75" cy="137.5" r="3"/>
   <circle cx="100" cy="175" r="3"/>
   <circle cx="181.25" cy="137.5" r="3"/>
   <circle cx="50" cy="175" r="3"/>
   <circle cx="150" cy="175" r="3"/>
   <circle cx="200" cy="175" r="3"/>
  </g>
  <g fill="none" stroke="#000" stroke-width="1px">
   <path d="m125 25 25 150"/>
   <path d="m43.75 87.5-25 50"/>
   <path d="m206.5 137.5-25-50"/>
  </g>
  <g>
   <circle cx="156.25" cy="87.5" r="3"/>
   <circle cx="206.25" cy="87.5" r="3"/>
   <circle cx="218.75" cy="112.5" r="3"/>
   <circle cx="231.25" cy="137.5" r="3"/>
   <circle cx="143.75" cy="137.5" r="3"/>
   <circle cx="106.25" cy="137.5" r="3"/>
   <circle cx="18.75" cy="137.5" r="3"/>
   <circle cx="31.25" cy="112.5" r="3"/>
   <circle cx="43.75" cy="87.5" r="3"/>
   <circle cx="81.25" cy="112.5" r="3"/>
   <circle cx="110.42" cy="112.5" r="3"/>
   <circle cx="139.58" cy="112.5" r="3"/>
   <circle cx="168.75" cy="112.5" r="3"/>
  </g>
  <path d="m68.5 87.5-25 50" fill="none" stroke="#000" stroke-width="1px"/>
  <path d="m231.25 137.5-25-50" fill="none" stroke="#000" stroke-width="1px"/>
  <g>
   <circle cx="43.5" cy="137.5" r="3"/>
   <circle cx="56" cy="112.5" r="3"/>
   <circle cx="68.5" cy="87.5" r="3"/>
   <circle cx="181.5" cy="87.5" r="3"/>
   <circle cx="194" cy="112.5" r="3"/>
   <circle cx="206.5" cy="137.5" r="3"/>
   <circle cx="135.42" cy="87.5" r="3"/>
  </g>
 </g>
</svg>
