<?xml version="1.0" encoding="UTF-8" standalone="no"?>
<!-- Created with Inkscape (http://www.inkscape.org/) -->

<svg
   width="722.48889mm"
   height="722.48889mm"
   viewBox="0 0 722.48889 722.48889"
   version="1.1"
   id="svg1"
   xml:space="preserve"
   inkscape:version="1.3.2 (1:1.3.2+202311252150+091e20ef0f)"
   sodipodi:docname="pachisi.svg"
   xmlns:inkscape="http://www.inkscape.org/namespaces/inkscape"
   xmlns:sodipodi="http://sodipodi.sourceforge.net/DTD/sodipodi-0.dtd"
   xmlns:xlink="http://www.w3.org/1999/xlink"
   xmlns="http://www.w3.org/2000/svg"
   xmlns:svg="http://www.w3.org/2000/svg"><sodipodi:namedview
     id="namedview1"
     pagecolor="#ffffff"
     bordercolor="#666666"
     borderopacity="1.0"
     inkscape:showpageshadow="2"
     inkscape:pageopacity="0.0"
     inkscape:pagecheckerboard="0"
     inkscape:deskcolor="#d1d1d1"
     inkscape:document-units="mm"
     showgrid="false"
     inkscape:zoom="0.19643308"
     inkscape:cx="1308.3336"
     inkscape:cy="1593.418"
     inkscape:window-width="1920"
     inkscape:window-height="1060"
     inkscape:window-x="0"
     inkscape:window-y="0"
     inkscape:window-maximized="1"
     inkscape:current-layer="svg1"><inkscape:grid
       id="grid1"
       units="px"
       originx="0"
       originy="0"
       spacingx="0.26458333"
       spacingy="0.26458333"
       empcolor="#3f3fff"
       empopacity="0.25098039"
       color="#3f3fff"
       opacity="0.1254902"
       empspacing="5"
       dotted="false"
       gridanglex="30"
       gridanglez="30"
       visible="false" /></sodipodi:namedview><defs
     id="defs1"><clipPath
       clipPathUnits="userSpaceOnUse"
       id="clipPath8"><use
         x="0"
         y="0"
         xlink:href="#g7"
         id="use8" /></clipPath><clipPath
       clipPathUnits="userSpaceOnUse"
       id="clipPath10"><use
         x="0"
         y="0"
         xlink:href="#g9"
         id="use10" /></clipPath><inkscape:path-effect
       effect="copy_rotate"
       starting_point="250.90556,127.27694"
       origin="90.81087,127.27694"
       id="path-effect2"
       is_visible="true"
       lpeversion="1.2"
       lpesatellites=""
       method="normal"
       num_copies="12"
       starting_angle="0"
       rotation_angle="30"
       gap="-0.01"
       copies_to_360="true"
       mirror_copies="false"
       split_items="false"
       link_styles="false" /><inkscape:path-effect
       effect="copy_rotate"
       starting_point="250.90556,127.27694"
       origin="90.81087,127.27694"
       id="path-effect2-0"
       is_visible="true"
       lpeversion="1.2"
       lpesatellites=""
       method="normal"
       num_copies="12"
       starting_angle="0"
       rotation_angle="30"
       gap="-0.01"
       copies_to_360="true"
       mirror_copies="false"
       split_items="false"
       link_styles="false" /><inkscape:path-effect
       effect="copy_rotate"
       starting_point="250.90556,127.27694"
       origin="90.81087,127.27694"
       id="path-effect2-3"
       is_visible="true"
       lpeversion="1.2"
       lpesatellites=""
       method="normal"
       num_copies="12"
       starting_angle="0"
       rotation_angle="30"
       gap="-0.01"
       copies_to_360="true"
       mirror_copies="false"
       split_items="false"
       link_styles="false" /></defs><g
     inkscape:label="Layer 1"
     inkscape:groupmode="layer"
     id="layer1"
     transform="translate(256.18323,212.74445)"><rect
       style="fill:#ebff63;fill-opacity:1;stroke-width:3;stroke-linecap:round;stroke-linejoin:round;paint-order:stroke fill markers"
       id="rect7"
       width="722.48889"
       height="722.48889"
       x="-256.18323"
       y="-212.74445"
       inkscape:label="background"
       sodipodi:insensitive="true" /><g
       id="g8"
       clip-path="url(#clipPath8)"
       inkscape:label="top"><g
         inkscape:label="Clip"
         id="g7"><rect
           style="fill:#ebff63;fill-opacity:1;stroke-width:3;stroke-linecap:round;stroke-linejoin:round;paint-order:stroke fill markers"
           id="rect1"
           width="290.77707"
           height="703.52704"
           x="-249.83324"
           y="-203.21945"
           inkscape:label="top" /></g><g
         id="g11"
         transform="translate(0,-1.0306091)"><rect
           style="fill:#3e8fff;fill-opacity:1;stroke-width:2.79451;stroke-linecap:round;stroke-linejoin:round;paint-order:stroke fill markers"
           id="rect1-2"
           width="258"
           height="688"
           x="-233.4447"
           y="-186.66183"
           inkscape:label="top-bg" /><rect
           style="fill:#1a1a1a;fill-opacity:1;stroke-width:0.570427;stroke-linecap:round;stroke-linejoin:round;paint-order:stroke fill markers"
           id="rect1-2-3"
           width="86"
           height="86"
           x="-233.4447"
           y="-186.66183"
           inkscape:label="checker" /><rect
           style="fill:#1a1a1a;fill-opacity:1;stroke-width:0.570427;stroke-linecap:round;stroke-linejoin:round;paint-order:stroke fill markers"
           id="rect1-2-3-5"
           width="86"
           height="86"
           x="-61.444702"
           y="-186.66183"
           inkscape:label="checker" /><rect
           style="fill:#1a1a1a;fill-opacity:1;stroke-width:0.570427;stroke-linecap:round;stroke-linejoin:round;paint-order:stroke fill markers"
           id="rect1-2-3-1"
           width="86"
           height="86"
           x="-147.4447"
           y="-100.66183"
           inkscape:label="checker" /><rect
           style="fill:#1a1a1a;fill-opacity:1;stroke-width:0.570427;stroke-linecap:round;stroke-linejoin:round;paint-order:stroke fill markers"
           id="rect1-2-3-2"
           width="86"
           height="86"
           x="-233.4447"
           y="-14.661827"
           inkscape:label="checker" /><rect
           style="fill:#1a1a1a;fill-opacity:1;stroke-width:0.570427;stroke-linecap:round;stroke-linejoin:round;paint-order:stroke fill markers"
           id="rect1-2-3-5-0"
           width="86"
           height="86"
           x="-61.444702"
           y="-14.661827"
           inkscape:label="checker" /><rect
           style="fill:#1a1a1a;fill-opacity:1;stroke-width:0.570427;stroke-linecap:round;stroke-linejoin:round;paint-order:stroke fill markers"
           id="rect1-2-3-1-6"
           width="86"
           height="86"
           x="-147.4447"
           y="71.338181"
           inkscape:label="checker" /><rect
           style="fill:#1a1a1a;fill-opacity:1;stroke-width:0.570427;stroke-linecap:round;stroke-linejoin:round;paint-order:stroke fill markers"
           id="rect1-2-3-4"
           width="86"
           height="86"
           x="-233.4447"
           y="157.33818"
           inkscape:label="checker" /><rect
           style="fill:#1a1a1a;fill-opacity:1;stroke-width:0.570427;stroke-linecap:round;stroke-linejoin:round;paint-order:stroke fill markers"
           id="rect1-2-3-5-7"
           width="86"
           height="86"
           x="-61.444702"
           y="157.33818"
           inkscape:label="checker" /><rect
           style="fill:#1a1a1a;fill-opacity:1;stroke-width:0.570427;stroke-linecap:round;stroke-linejoin:round;paint-order:stroke fill markers"
           id="rect1-2-3-1-65"
           width="86"
           height="86"
           x="-147.4447"
           y="243.33818"
           inkscape:label="checker" /><rect
           style="fill:#1a1a1a;fill-opacity:1;stroke-width:0.570427;stroke-linecap:round;stroke-linejoin:round;paint-order:stroke fill markers"
           id="rect1-2-3-2-6"
           width="86"
           height="86"
           x="-233.4447"
           y="329.3382"
           inkscape:label="checker" /><rect
           style="fill:#1a1a1a;fill-opacity:1;stroke-width:0.570427;stroke-linecap:round;stroke-linejoin:round;paint-order:stroke fill markers"
           id="rect1-2-3-5-0-9"
           width="86"
           height="86"
           x="-61.444702"
           y="329.3382"
           inkscape:label="checker" /><rect
           style="fill:#1a1a1a;fill-opacity:1;stroke-width:0.570427;stroke-linecap:round;stroke-linejoin:round;paint-order:stroke fill markers"
           id="rect1-2-3-1-6-3"
           width="86"
           height="86"
           x="-147.4447"
           y="415.3382"
           inkscape:label="checker" /></g></g><g
       id="g10"
       clip-path="url(#clipPath10)"
       inkscape:label="top-center"><g
         inkscape:label="Clip"
         id="g9"><rect
           style="fill:#ebff63;fill-opacity:1;stroke-width:3;stroke-linecap:round;stroke-linejoin:round;paint-order:stroke fill markers"
           id="rect2"
           width="291.04166"
           height="291.04166"
           x="140.1626"
           y="-177.55487"
           inkscape:label="top-center" /></g><rect
         style="fill:#3e8fff;fill-opacity:1;stroke-width:2.7;stroke-linecap:round;stroke-linejoin:round;paint-order:stroke fill markers"
         id="rect2-6"
         width="261.9375"
         height="261.9375"
         x="154.71468"
         y="-163.00279"
         inkscape:label="top-center-bg" /><path
         style="fill:none;stroke:#1a1a1a;stroke-width:20;stroke-linecap:butt;stroke-linejoin:miter;stroke-dasharray:none;stroke-opacity:1"
         d="M 206.97513,-110.74233 H 364.3917 V 46.674253 H 206.97513 Z"
         id="path10" /></g></g><path
     style="fill:none;stroke:#000000;stroke-width:6;stroke-linecap:butt;stroke-linejoin:miter;stroke-dasharray:none;stroke-opacity:1"
     d="m 46.781822,100.07947 c 2.897907,-53.961895 44.616818,8.43027 43.971083,27.66143 m -51.671044,-2.00314 c -24.471286,-48.181321 42.854433,-15.00758 51.91079,1.96996 M 45.242646,151.80848 C -0.04077235,122.31787 74.851883,117.38432 91.183689,127.55912 M 63.6134,171.30599 C 9.651505,168.40808 72.04367,126.68917 91.27483,127.3349 m -2.003136,51.67105 c -48.181325,24.47129 -15.007581,-42.85443 1.96996,-51.91079 m 24.100756,45.75 C 85.8518,218.12858 80.918246,143.23593 91.093049,126.90412 m 43.746871,27.57029 C 131.94201,208.4363 90.2231,146.04414 90.868835,126.81298 m 51.671045,2.00314 c 24.47129,48.18132 -42.854434,15.00758 -51.910791,-1.96996 M 136.37909,102.7454 c 45.28342,29.49061 -29.60923,34.42416 -45.941039,24.24936 M 118.00834,83.247892 c 53.96189,2.897907 -8.43027,44.616818 -27.66143,43.971088 M 92.350046,75.547931 C 140.53137,51.076645 107.35763,118.40236 90.380086,127.45872 M 66.279331,81.708716 C 95.76994,36.425298 100.70349,111.31795 90.528691,127.64976"
     id="path1"
     sodipodi:nodetypes="cc"
     inkscape:path-effect="#path-effect2"
     inkscape:original-d="m 46.781822,100.07947 c 2.897907,-53.961895 44.616818,8.43027 43.971083,27.66143"
     inkscape:transform-center-x="-1.5760584"
     inkscape:transform-center-y="-21.038386"
     transform="matrix(0.61511436,0,0,0.61511436,95.879458,-10.237867)"
     inkscape:label="flourish" /><path
     style="fill:none;stroke:#000000;stroke-width:6;stroke-linecap:butt;stroke-linejoin:miter;stroke-dasharray:none;stroke-opacity:1"
     d="m 46.781822,100.07947 c 2.897907,-53.961895 44.616818,8.43027 43.971083,27.66143 m -51.671044,-2.00314 c -24.471286,-48.181321 42.854433,-15.00758 51.91079,1.96996 M 45.242646,151.80848 C -0.04077235,122.31787 74.851883,117.38432 91.183689,127.55912 M 63.6134,171.30599 C 9.651505,168.40808 72.04367,126.68917 91.27483,127.3349 m -2.003136,51.67105 c -48.181325,24.47129 -15.007581,-42.85443 1.96996,-51.91079 m 24.100756,45.75 C 85.8518,218.12858 80.918246,143.23593 91.093049,126.90412 m 43.746871,27.57029 C 131.94201,208.4363 90.2231,146.04414 90.868835,126.81298 m 51.671045,2.00314 c 24.47129,48.18132 -42.854434,15.00758 -51.910791,-1.96996 M 136.37909,102.7454 c 45.28342,29.49061 -29.60923,34.42416 -45.941039,24.24936 M 118.00834,83.247892 c 53.96189,2.897907 -8.43027,44.616818 -27.66143,43.971088 M 92.350046,75.547931 C 140.53137,51.076645 107.35763,118.40236 90.380086,127.45872 M 66.279331,81.708716 C 95.76994,36.425298 100.70349,111.31795 90.528691,127.64976"
     id="path1-7"
     sodipodi:nodetypes="cc"
     inkscape:path-effect="#path-effect2-0"
     inkscape:original-d="m 46.781822,100.07947 c 2.897907,-53.961895 44.616818,8.43027 43.971083,27.66143"
     inkscape:transform-center-x="-1.5760584"
     inkscape:transform-center-y="-21.038386"
     transform="matrix(0.61511436,0,0,0.61511436,9.8794578,247.76214)"
     inkscape:label="flourish" /><path
     style="fill:none;stroke:#000000;stroke-width:6;stroke-linecap:butt;stroke-linejoin:miter;stroke-dasharray:none;stroke-opacity:1"
     d="m 46.781822,100.07947 c 2.897907,-53.961895 44.616818,8.43027 43.971083,27.66143 m -51.671044,-2.00314 c -24.471286,-48.181321 42.854433,-15.00758 51.91079,1.96996 M 45.242646,151.80848 C -0.04077235,122.31787 74.851883,117.38432 91.183689,127.55912 M 63.6134,171.30599 C 9.651505,168.40808 72.04367,126.68917 91.27483,127.3349 m -2.003136,51.67105 c -48.181325,24.47129 -15.007581,-42.85443 1.96996,-51.91079 m 24.100756,45.75 C 85.8518,218.12858 80.918246,143.23593 91.093049,126.90412 m 43.746871,27.57029 C 131.94201,208.4363 90.2231,146.04414 90.868835,126.81298 m 51.671045,2.00314 c 24.47129,48.18132 -42.854434,15.00758 -51.910791,-1.96996 M 136.37909,102.7454 c 45.28342,29.49061 -29.60923,34.42416 -45.941039,24.24936 M 118.00834,83.247892 c 53.96189,2.897907 -8.43027,44.616818 -27.66143,43.971088 M 92.350046,75.547931 C 140.53137,51.076645 107.35763,118.40236 90.380086,127.45872 M 66.279331,81.708716 C 95.76994,36.425298 100.70349,111.31795 90.528691,127.64976"
     id="path1-1"
     sodipodi:nodetypes="cc"
     inkscape:path-effect="#path-effect2-3"
     inkscape:original-d="m 46.781822,100.07947 c 2.897907,-53.961895 44.616818,8.43027 43.971083,27.66143"
     inkscape:transform-center-x="-1.5760584"
     inkscape:transform-center-y="-21.038386"
     transform="matrix(0.61511436,0,0,0.61511436,181.87945,247.76214)"
     inkscape:label="flourish" /><g
     inkscape:groupmode="layer"
     id="layer2"
     inkscape:label="Bottoms"
     sodipodi:insensitive="true"
     style="display:none"><rect
       style="fill:#1a1a1a;stroke-width:3;stroke-linecap:round;stroke-linejoin:round;paint-order:stroke fill markers"
       id="rect3"
       width="5.5562487"
       height="352.42502"
       x="48.087597"
       y="152.90971"
       inkscape:label="side"
       transform="translate(256.18323,212.74445)" /><rect
       style="fill:#1a1a1a;stroke-width:3;stroke-linecap:round;stroke-linejoin:round;paint-order:stroke fill markers"
       id="rect4"
       width="146.04999"
       height="352.42499"
       x="68.19593"
       y="152.90971"
       inkscape:label="bottom"
       transform="translate(256.18323,212.74445)" /><rect
       style="fill:#1a1a1a;stroke-width:3;stroke-linecap:round;stroke-linejoin:round;paint-order:stroke fill markers"
       id="rect5"
       width="6.085413"
       height="146.57916"
       x="58.670933"
       y="255.83263"
       inkscape:label="side-ends"
       transform="translate(256.18323,212.74445)" /><rect
       style="fill:#1a1a1a;stroke-width:3;stroke-linecap:round;stroke-linejoin:round;paint-order:stroke fill markers"
       id="rect6"
       width="145.78542"
       height="146.20566"
       x="248.90634"
       y="328.32846"
       inkscape:label="bottom-center"
       transform="translate(256.18323,212.74445)" /></g></svg>
